<svg xmlns="http://www.w3.org/2000/svg" viewBox="0 0 1920 430.27"><defs><style>.cls-1{fill:#ededed;}</style></defs><g id="Capa_2" data-name="Capa 2"><g id="Capa_2-2" data-name="Capa 2"><path class="cls-1" d="M1920,261V11c-31.15,10.64-138.79-5.31-204.2.12s-134.45,12.63-200.92,8.06c-43.51-3-80.34-10.79-124.72-12.85-57.46-2.66-113.55,4.73-169.41,9a1600.09,1600.09,0,0,1-198.88,2.4c-111.4-5.65-220.07-23-330.36-16.16C644.4,4.51,603.43,11.65,558.08,16a1142.79,1142.79,0,0,1-165.22,3.14c-48.51-2.61-93.64-8.27-142-11C165.17,3.16,71.22,8,.48,21L0,417.48C156,402,319,433.36,477.53,424c68-4,132.79-15.44,200.81-19.47,185.83-11,370.61,33.88,556.91,24.46C1354,423,1468,395,1586.42,402.38c44.38,2.75,86.26,10.38,129.69,15.2C1790.2,425.8,1846,424.35,1920,416Z"/></g></g></svg>