<svg xmlns="http://www.w3.org/2000/svg" xmlns:xlink="http://www.w3.org/1999/xlink" viewBox="0 0 2045.86 486.89"><defs><style>.cls-1{fill:none;}.cls-2{clip-path:url(#clip-path);}.cls-3{fill:#bdcadd;opacity:0.43;}</style><clipPath id="clip-path"><rect class="cls-1" y="4.89" width="574" height="482"/></clipPath></defs><g id="Capa_2" data-name="Capa 2"><g id="Capa_5" data-name="Capa 5"><g class="cls-2"><path class="cls-3" d="M323.75,164.25c-67.41,48.17-123.09,9-126.25,4-7.46,1.28-20,5.55-27.17,8.13,2.21.86,4.42,1.69,6.63,2.55q42.84,16.82,84.63,36.08c17.54-14.16,95.83-39.72,170,4C507.4,263.69,524.43,320.77,523.89,352c-81.15,46.32-163.76-1.05-203.51-37.75-41.81-38.61-55.18-79.28-58.72-93.22q-43.14-18.82-87.39-34.93c-4.08-1.49-8.19-2.93-12.29-4.4l15.51,24.22s41.67-8.83,81.66,58.89C297.3,329.39,299,376.1,236.69,412.44c0,0-21.94.57-48.09-40.23-20.91-32.64-38-105.23-18.36-161.7-6.26-10.88-15.44-27.22-18.37-32.44Q80.72,153.23,7.73,134.29c-3.3-.87-6.63-1.7-9.94-2.55L17.2,163.62s69.12-1.81,103,60S139,338.92,100.4,366.49c0,0-54.16-7.34-80.19-65.69s-18.72-99.28-7.8-133.69l-24.24-37.82q-32.49-8.16-65.23-15.2-21.3-4.57-42.69-8.64c-14.23-2.67-28.61-5.24-42.75-7.35l-.15,0-.14,0a7.92,7.92,0,0,1-6.43-9.14,7.9,7.9,0,0,1,9.13-6.42c14.63,2.54,28.9,5.44,43.25,8.48s28.59,6.31,42.82,9.72q31.19,7.44,62.09,16C-.13,114.6,26.41,110,35.22,108,33.08,105.13,60.06,31.71,108,1c48.76-31.24,82.41-35.48,113-20.12,16.7,23.4,11.21,96.55-62.48,135.88-69.7,37.21-123.09-.91-123.09-.91L10.79,123h0q72.44,20.74,143.06,47.12l39.74-7.9S196.1,114.7,263.55,56C316.93,9.48,364.69,33.44,368.2,37.16c6.89,7.26,28.85,74.72-44.45,127.09"/></g><path class="cls-3" d="M1739.72,151.8c52.44,18.92,81.37-16.62,82.52-20.4,5.06-.52,14,0,19.09.33l-3.84,2.85q-24.67,18.71-48.25,38.8c-13.94-6-69.31-8.27-109.42,33.56-41,42.74-41.59,82.82-35.56,102.92,61,15.22,105.9-30.52,125-61.54,20-32.63,21.29-61.41,21-71.09q24.51-20.05,50.24-38.55c2.38-1.71,4.78-3.39,7.17-5.09l-5.64,18.52s-28.6,1.87-42.16,53c-13,48.82-5.5,79.38,41.45,91.57,0,0,14.32-3.63,23.82-34.82,7.6-24.95,5.46-75.1-17.57-108.1,2.08-8.19,5-20.45,6-24.36q41.57-29.07,85.4-54.63c2-1.16,4-2.31,6-3.46l-6.77,24.19s-45.1,11.42-55.82,57.64,8.86,78.12,38.89,88.94c0,0,33.75-14.62,40-57.17s-6-67.72-19.31-88L1950.74,68q19.56-11.2,39.49-21.74,13-6.84,26.08-13.37c8.73-4.33,17.58-8.61,26.35-12.55l.09-.05.09,0a5.31,5.31,0,0,0-4.58-9.59c-9,4.32-17.73,8.8-26.48,13.38s-17.36,9.3-26,14.1q-18.85,10.5-37.31,21.65c-8,.82-26.06,2.65-32.12,3,.86-2.26-30-44.9-66.66-56.07-37.28-11.36-59.86-8-76.87,7.55-6.56,18.21,10.33,64.59,65.23,76.64,51.93,11.41,79.58-23,79.58-23l17.28.16h0q-43.14,26.64-84.08,56.6l-27.19,2.12s-10.27-30.34-64.66-56.1c-43.06-20.39-69.63,3.83-71.23,6.88-3.14,6-5.07,53.67,52,74.24"/></g></g></svg>