<svg xmlns="http://www.w3.org/2000/svg" viewBox="0 0 255.05 197.34"><defs><style>.cls-1{fill:#bdcadd;}</style></defs><g id="Capa_2" data-name="Capa 2"><g id="Capa_2-2" data-name="Capa 2"><path class="cls-1" d="M62,95.74C95,107.68,113.28,85.26,114,82.88a88.13,88.13,0,0,1,12,.2c-.81.61-1.62,1.2-2.42,1.81Q108,96.68,93.19,109.36c-8.8-3.77-43.72-5.22-69,21.17C-1.66,157.48-2.06,182.76,1.74,195.44c38.49,9.6,66.8-19.25,78.82-38.82C93.21,136,94,117.89,93.84,111.79q15.47-12.66,31.69-24.32c1.5-1.08,3-2.14,4.52-3.21l-3.56,11.68s-18,1.18-26.59,33.45c-8.16,30.79-3.47,50.07,26.15,57.76,0,0,9-2.29,15-22,4.8-15.74,3.44-47.36-11.08-68.18,1.31-5.16,3.18-12.9,3.78-15.36Q160,63.31,187.63,47.18L191.4,45l-4.27,15.25s-28.44,7.21-35.2,36.36,5.59,49.27,24.53,56.1c0,0,21.28-9.23,25.21-36.06s-3.76-42.72-12.18-55.52l5.56-18.24Q207.4,35.83,220,29.18q8.17-4.32,16.45-8.44c5.5-2.72,11.08-5.42,16.62-7.91l.06,0,0,0a3.35,3.35,0,1,0-2.89-6c-5.69,2.72-11.18,5.54-16.7,8.43s-11,5.87-16.38,8.9q-11.88,6.61-23.53,13.65c-5.06.52-16.44,1.67-20.26,1.9.54-1.43-18.92-28.33-42-35.37C107.82-2.93,93.59-.79,82.85,9,78.72,20.48,89.37,49.74,124,57.34c32.75,7.19,50.19-14.52,50.19-14.52l10.9.1h0q-27.21,16.8-53,35.7L114.89,80S108.41,60.83,74.1,44.58C47,31.72,30.19,47,29.18,48.92,27.2,52.68,26,82.77,62,95.74"/></g></g></svg>