<svg xmlns="http://www.w3.org/2000/svg" viewBox="0 0 294.43 364.82"><defs><style>.cls-1{fill:#bdcadd;}</style></defs><g id="Capa_2" data-name="Capa 2"><g id="Capa_2-2" data-name="Capa 2"><path class="cls-1" d="M229.69,162.29c-50.49-2.55-66.18,35.91-66.18,39.49-4.25,1.79-12.09,3.72-16.64,4.76q1.29-1.74,2.57-3.49,16.47-22.74,31.6-46.39c13.67,1.5,62.29-11.14,86-58C291.29,50.76,281.25,15.84,270.71,0c-56.93,2.92-83.78,54.44-92.11,86.38-8.77,33.6-2.25,58.89.52,67.22q-16,23.86-33.39,46.7c-1.61,2.11-3.24,4.2-4.87,6.3V189.06s24.31-9.18,22.56-57.13c-1.68-45.76-16.21-70.29-60.15-68.46,0,0-11.46,6.93-11.46,36.49,0,23.65,15.11,66.56,43.8,89.1.36,7.65,1,19.07,1.24,22.71Q108.49,248,77.22,281.71c-1.41,1.53-2.84,3.05-4.27,4.58l-.52-22.76s36.1-21.83,33.18-64.74-28.32-65.4-57.22-66.86c0,0-25.4,21.6-19.57,60.14s23.07,57.16,40,71.24v27.4q-14,14.9-28.5,29.29-9.43,9.36-19.09,18.48c-6.43,6.06-13,12.11-19.53,17.85l-.07.06-.07.06a4.82,4.82,0,0,0,6.51,7.11c6.68-6.13,13.05-12.31,19.42-18.6s12.61-12.65,18.8-19.08q13.56-14.1,26.64-28.64c6.73-2.83,21.9-9.18,27.06-11.09-.15,2.19,37.88,31,72.62,31,35.33,0,54-8.9,64.67-26.86.87-17.52-26-53.28-76.82-49.23-48.05,3.83-62.93,41-62.93,41l-15,4.43,0,0q30.38-34.5,58-71.3l23-9s16.92,23.6,70.9,31.57c42.72,6.31,59.36-21.72,60-24.79C295.5,207,284.58,165.07,229.69,162.29Z"/></g></g></svg>